<?xml version="1.0" encoding="UTF-8"?>
<svg version="1.1" xmlns="http://www.w3.org/2000/svg" width="242" height="269">
<path d="M0 0 C79.86 0 159.72 0 242 0 C242 88.77 242 177.54 242 269 C162.14 269 82.28 269 0 269 C0 180.23 0 91.46 0 0 Z " fill="#FEFEFE" transform="translate(0,0)"/>
<path d="M0 0 C16.31711677 -0.33963513 32.6311822 -0.61548913 48.95086098 -0.77718258 C56.52973267 -0.85428163 64.10624052 -0.95922481 71.68359375 -1.1315918 C78.29427142 -1.28189649 84.90323678 -1.37805322 91.51557577 -1.41132742 C95.01250863 -1.43076023 98.50454708 -1.47582538 101.999897 -1.58595085 C124.94310037 -2.28065447 124.94310037 -2.28065447 131.55953979 3.1665802 C134.64056151 6.25311821 137.17717527 9.64960388 139.66374588 13.22289467 C142.6885094 17.24557516 147.06941431 19.85344638 151.1171875 22.75390625 C180.19949009 45.38980517 180.19949009 45.38980517 182.83300781 63.69873047 C185.20715098 83.97520341 183.0417288 104.8095708 181 125 C163.51 125 146.02 125 128 125 C128 101.57 128 78.14 128 54 C85.76 54 43.52 54 0 54 C0 36.18 0 18.36 0 0 Z " fill="#030303" transform="translate(25,18)"/>
<path d="M0 0 C42.24 0 84.48 0 128 0 C128 17.82 128 35.64 128 54 C103.58 54 79.16 54 54 54 C54 72.81 54 91.62 54 111 C53.34 111 52.68 111 52 111 C50.62568665 109.60691833 50.62568665 109.60691833 49.0012207 107.63452148 C44.58315291 102.44307289 39.80406739 97.6603838 34.98046875 92.84765625 C34.03104843 91.89756065 33.08177646 90.9473168 32.13264465 89.99693298 C30.16011503 88.02294123 28.18581861 86.05073914 26.21020508 84.07983398 C23.67702339 81.552396 21.14842172 79.0204305 18.62108898 76.48714542 C16.66955192 74.53200245 14.71564907 72.57923782 12.76101112 70.62719536 C11.37368135 69.24085585 9.98836335 67.85250409 8.60307312 66.46412659 C7.76492569 65.62913132 6.92677826 64.79413605 6.06323242 63.93383789 C5.3248967 63.19629776 4.58656097 62.45875763 3.82585144 61.6988678 C2.09893909 59.93202493 2.09893909 59.93202493 0 59 C0 39.53 0 20.06 0 0 Z " fill="#040404" transform="translate(25,143)"/>
</svg>
